<?xml version="1.0" standalone="no"?><!DOCTYPE svg PUBLIC "-//W3C//DTD SVG 1.1//EN" "http://www.w3.org/Graphics/SVG/1.1/DTD/svg11.dtd"><svg t="1749796143070" class="icon" viewBox="0 0 1024 1024" version="1.1" xmlns="http://www.w3.org/2000/svg" p-id="9950" xmlns:xlink="http://www.w3.org/1999/xlink" width="200" height="200"><path d="M281.6 73.142857a36.571429 36.571429 0 0 1 0-73.142857h460.8a36.571429 36.571429 0 1 1 0 73.142857h-460.8zM438.637714 795.209143a36.571429 36.571429 0 1 1-73.142857 0V402.285714a36.571429 36.571429 0 1 1 73.142857 0v392.923429zM658.505143 795.209143a36.571429 36.571429 0 1 1-73.142857 0V402.285714a36.571429 36.571429 0 0 1 73.142857 0v392.923429zM37.302857 256a36.571429 36.571429 0 0 1 0-73.142857h947.2a36.571429 36.571429 0 0 1 0 73.142857H37.302857z" fill="#EF4444" p-id="9951"></path><path d="M913.993143 402.285714a36.571429 36.571429 0 0 0-36.571429-36.571428 37.522286 37.522286 0 0 0-37.668571 36.352l-71.68 547.693714-0.219429 1.097143H255.414857l-72.923428-548.571429a36.571429 36.571429 0 0 0-36.571429-36.571428 36.937143 36.937143 0 0 0-37.010286 36.571428l73.874286 556.178286a73.142857 73.142857 0 0 0 72.630857 65.024h512.438857a73.142857 73.142857 0 0 0 72.704-65.316571" fill="#EF4444" p-id="9952"></path></svg>