<?xml version="1.0" standalone="no"?><!DOCTYPE svg PUBLIC "-//W3C//DTD SVG 1.1//EN" "http://www.w3.org/Graphics/SVG/1.1/DTD/svg11.dtd"><svg t="1749715790058" class="icon" viewBox="0 0 1024 1024" version="1.1" xmlns="http://www.w3.org/2000/svg" p-id="33301" xmlns:xlink="http://www.w3.org/1999/xlink" width="200" height="200"><path d="M0.000117 521.096447C0.000117 156.238969 137.646349 0 502.503827 0s521.096447 156.238969 521.096446 521.096447-137.546271 502.503709-502.503709 502.503709S0.000117 886.053885 0.000117 521.096447z" fill="#ed7549" p-id="33302" data-spm-anchor-id="a313x.search_index.0.i44.de003a81ZboPWB" class=""></path><path d="M767.600273 357.860211c-13.694651-1.999219-26.389692 7.397111-28.38891 21.091761l-53.679032 363.05818c-2.499024 16.893401-15.094104 29.188598-30.088247 29.188598H368.056345c-14.894182 0-27.589223-12.295197-30.088247-29.188598l-53.679031-363.05818c-1.999219-13.694651-14.69426-23.09098-28.388911-21.091761s-23.09098 14.69426-21.091761 28.38891l53.679032 363.058181c2.898868 19.692308 12.295197 37.78524 26.589613 50.880125 14.69426 13.494729 33.486919 20.9918 52.979305 20.9918h287.4877c19.492386 0 38.285045-7.497071 52.979305-20.9918 14.194455-13.094885 23.590785-31.187817 26.589614-50.880125L788.692034 386.249121c1.999219-13.694651-7.397111-26.389692-21.091761-28.38891zM795.689301 279.990629h-189.92581V229.310426c0-14.794221-12.095275-26.889496-26.889496-26.889497H444.826357c-14.794221 0-26.889496 12.095275-26.889496 26.889497v50.680203h-189.925811c-13.794611 0-24.990238 11.195627-24.990238 24.990238s11.195627 24.990238 24.990238 24.990238h567.678251c13.794611 0 24.990238-11.195627 24.990238-24.990238s-11.195627-24.990238-24.990238-24.990238z m-327.771964 0v-27.589223h87.865677v27.589223h-87.865677z" fill="#fece8f" p-id="33303" data-spm-anchor-id="a313x.search_index.0.i48.de003a81ZboPWB" class="selected"></path><path d="M463.01925 632.452948V468.716907c0-13.794611-11.195627-24.990238-24.990238-24.990238s-24.990238 11.195627-24.990238 24.990238v163.736041c0 13.794611 11.195627 24.990238 24.990238 24.990238s24.990238-11.195627 24.990238-24.990238zM626.755291 632.452948V468.716907c0-13.794611-11.195627-24.990238-24.990238-24.990238s-24.990238 11.195627-24.990238 24.990238v163.736041c0 13.794611 11.195627 24.990238 24.990238 24.990238s24.990238-11.195627 24.990238-24.990238z" fill="#fece8f" p-id="33304" data-spm-anchor-id="a313x.search_index.0.i49.de003a81ZboPWB" class="selected"></path></svg>