<?xml version="1.0" standalone="no"?><!DOCTYPE svg PUBLIC "-//W3C//DTD SVG 1.1//EN" "http://www.w3.org/Graphics/SVG/1.1/DTD/svg11.dtd"><svg t="1749709196090" class="icon" viewBox="0 0 1024 1024" version="1.1" xmlns="http://www.w3.org/2000/svg" p-id="10359" data-spm-anchor-id="a313x.search_index.0.i22.de003a81ZboPWB" xmlns:xlink="http://www.w3.org/1999/xlink" width="200" height="200"><path d="M38.4 128h255.089778c16.952889 0 33.28 6.769778 45.283555 18.773333l26.453334 26.453334c12.003556 12.003556 28.330667 18.773333 45.283555 18.773333h447.089778c21.219556 0 38.4 17.180444 38.4 38.4v627.2a38.4 38.4 0 0 1-38.4 38.4H38.4A38.4 38.4 0 0 1 0 857.6V166.4c0-21.219556 17.180444-38.4 38.4-38.4z" fill="#d3f9d8" p-id="10360" data-spm-anchor-id="a313x.search_index.0.i23.de003a81ZboPWB" class=""></path><path d="M102.4 288.028444h691.2c21.219556 0 38.4 17.180444 38.4 38.4v435.2a38.4 38.4 0 0 1-38.4 38.4H102.4a38.4 38.4 0 0 1-38.4-38.456888v-435.2c0-21.162667 17.180444-38.4 38.4-38.4z" fill="#7acfa2" p-id="10361" data-spm-anchor-id="a313x.search_index.0.i20.de003a81ZboPWB" class=""></path><path d="M157.752889 398.222222H974.506667a38.4 38.4 0 0 1 37.205333 47.957334l-108.259556 420.977777a38.4 38.4 0 0 1-37.148444 28.842667H24.746667a19.228444 19.228444 0 0 1-18.602667-24.007111L120.604444 427.064889A38.4 38.4 0 0 1 157.752889 398.222222z" fill="#d3f8d7" p-id="10362" data-spm-anchor-id="a313x.search_index.0.i21.de003a81ZboPWB" class=""></path></svg>