<?xml version="1.0" standalone="no"?><!DOCTYPE svg PUBLIC "-//W3C//DTD SVG 1.1//EN" "http://www.w3.org/Graphics/SVG/1.1/DTD/svg11.dtd"><svg t="1749715670328" class="icon" viewBox="0 0 1024 1024" version="1.1" xmlns="http://www.w3.org/2000/svg" p-id="26642" xmlns:xlink="http://www.w3.org/1999/xlink" width="200" height="200"><path d="M960.853333 290.133333l-125.952-125.781333L733.866667 63.146667a79.018667 79.018667 0 0 0-55.637334-23.04H290.133333V238.933333a48.981333 48.981333 0 0 0 48.981334 48.810667h296.96a25.6 25.6 0 0 1 0 51.2H338.432A100.181333 100.181333 0 0 1 238.933333 238.933333V40.106667H119.466667A78.848 78.848 0 0 0 40.106667 119.466667v785.066666A78.848 78.848 0 0 0 119.466667 983.893333h119.466666V636.074667a100.181333 100.181333 0 0 1 100.181334-100.010667h346.453333A100.181333 100.181333 0 0 1 785.066667 636.074667v347.818666h119.466666A78.848 78.848 0 0 0 983.893333 904.533333V345.941333A79.018667 79.018667 0 0 0 960.853333 290.133333z" fill="#6cc796" p-id="26643"></path><path d="M733.866667 636.074667a48.981333 48.981333 0 0 0-48.981334-48.810667h-346.453333A48.981333 48.981333 0 0 0 290.133333 636.074667v347.818666h443.733334z" fill="#6cc796" p-id="26644"></path></svg>