<?xml version="1.0" standalone="no"?><!DOCTYPE svg PUBLIC "-//W3C//DTD SVG 1.1//EN" "http://www.w3.org/Graphics/SVG/1.1/DTD/svg11.dtd"><svg t="1749799242323" class="icon" viewBox="0 0 1024 1024" version="1.1" xmlns="http://www.w3.org/2000/svg" p-id="11037" xmlns:xlink="http://www.w3.org/1999/xlink" width="200" height="200"><path d="M416.00006 639.2316a48.76797 48.76797 0 0 1-35.647978-15.61599c-92.095942-97.535939-92.095942-255.48784 0-353.087779l185.791884-196.415877a228.351857 228.351857 0 0 1 167.039896-73.087955c63.039961 0 122.303924 25.919984 166.911895 73.023955 92.159942 97.599939 92.159942 255.55184 0 353.087779l-84.927946 89.855944a48.44797 48.44797 0 0 1-71.231956 0 55.359965 55.359965 0 0 1 0-75.263953l84.991947-89.791944a149.311907 149.311907 0 0 0 0-202.623873 131.007918 131.007918 0 0 0-95.74394-41.919974c-36.223977 0-70.207956 14.911991-95.80794 41.919974l-185.855884 196.479877a149.311907 149.311907 0 0 0 0 202.559873 55.423965 55.423965 0 0 1-0.256 75.327953 49.087969 49.087969 0 0 1-35.327978 15.487991z m-345.983784 311.679806c-92.159942-97.599939-92.159942-255.55184 0-353.08778L154.880223 508.031682a48.44797 48.44797 0 0 1 71.167956 0 55.295965 55.295965 0 0 1 0 75.263953l-84.927947 89.663944a149.311907 149.311907 0 0 0 0 202.559874c25.599984 27.071983 59.519963 41.983974 95.74394 41.983974S307.200128 902.591436 332.800112 875.519453l185.791884-196.415877a149.311907 149.311907 0 0 0 0-202.623874 55.359965 55.359965 0 0 1 4.159997-75.135953 48.38397 48.38397 0 0 1 67.007958 0c92.095942 97.535939 92.095942 255.48784 0 353.02378l-185.791883 196.479877A228.415857 228.415857 0 0 1 236.928172 1023.99936a228.479857 228.479857 0 0 1-166.911896-73.151954z" fill="#ffffff" p-id="11038"></path></svg>