<?xml version="1.0" standalone="no"?><!DOCTYPE svg PUBLIC "-//W3C//DTD SVG 1.1//EN" "http://www.w3.org/Graphics/SVG/1.1/DTD/svg11.dtd"><svg t="1749715463903" class="icon" viewBox="0 0 1024 1024" version="1.1" xmlns="http://www.w3.org/2000/svg" p-id="24332" xmlns:xlink="http://www.w3.org/1999/xlink" width="200" height="200"><path d="M420.712703 359.776076a61.459964 61.459964 0 0 0-53.189249 30.801281l-7.985518 14.259852a65.024927 65.024927 0 0 0 23.671355 88.696282l164.558697 95.255814a64.597131 64.597131 0 0 0 88.553683-23.813953l7.985517-14.259853a60.319176 60.319176 0 0 0 4.84835-10.837488 61.602562 61.602562 0 0 0-38.216404-78.286589A447.046372 447.046372 0 0 1 531.369157 425.799192a448.187161 448.187161 0 0 1-71.299261-50.765074 58.89319 58.89319 0 0 0-9.6967-6.844729 60.746971 60.746971 0 0 0-30.516084-8.270715z" fill="#FFFFFF" p-id="24333"></path><path d="M404.884267 449.327949L150.203303 926.890405a32.512463 32.512463 0 0 0 12.406072 42.779557L246.17211 1019.579446a32.369865 32.369865 0 0 0 43.635148-10.980087l285.197048-460.308035v-0.855591a32.512463 32.512463 0 0 0-11.835678-44.348141l-115.077008-66.59351h-0.855592a32.369865 32.369865 0 0 0-43.920345 13.261662zM383.779685 160.993733l-3.992758 6.84473a16.256232 16.256232 0 0 0 5.989138 22.102771l421.663835 244.271271a16.113633 16.113633 0 0 0 22.102771-6.416933l3.992759-6.844729a16.256232 16.256232 0 0 0-5.84654-21.674976L405.882456 155.147194a16.113633 16.113633 0 0 0-22.102771 5.989138z" fill="#FFFFFF" p-id="24334"></path><path d="M429.268614 121.921738A239.850717 239.850717 0 1 0 845.08591 362.342849a242.417491 242.417491 0 0 0-87.270297-330.40078A236.285754 236.285754 0 0 0 639.031043 0a242.417491 242.417491 0 0 0-209.762429 121.921738z" fill="#FFFFFF" p-id="24335"></path><path d="M429.268614 121.921738A239.850717 239.850717 0 1 0 845.08591 362.342849a242.417491 242.417491 0 0 0-87.270297-330.40078A236.285754 236.285754 0 0 0 639.031043 0a242.417491 242.417491 0 0 0-209.762429 121.921738z" fill="#6dc897" p-id="24336" data-spm-anchor-id="a313x.search_index.0.i31.de003a81ZboPWB" class=""></path><path d="M383.779685 160.993733l-3.992758 6.84473a16.256232 16.256232 0 0 0 5.989138 22.102771l421.663835 244.271271a16.113633 16.113633 0 0 0 22.102771-6.416933l3.992759-6.844729a16.256232 16.256232 0 0 0-5.84654-21.674976L405.882456 155.147194a16.113633 16.113633 0 0 0-22.102771 5.989138z" fill="#6dc897" p-id="24337" data-spm-anchor-id="a313x.search_index.0.i33.de003a81ZboPWB" class=""></path><path d="M404.884267 449.327949L150.203303 926.890405a32.512463 32.512463 0 0 0 12.406072 42.779557L246.17211 1019.579446a32.369865 32.369865 0 0 0 43.635148-10.980087l285.197048-460.308035v-0.855591a32.512463 32.512463 0 0 0-11.835678-44.348141l-115.077008-66.59351h-0.855592a32.369865 32.369865 0 0 0-43.920345 13.261662z" fill="#69c496" p-id="24338" data-spm-anchor-id="a313x.search_index.0.i36.de003a81ZboPWB" class="selected"></path><path d="M420.712703 359.776076a61.459964 61.459964 0 0 0-53.189249 30.801281l-7.985518 14.259852a65.024927 65.024927 0 0 0 23.671355 88.696282l164.558697 95.255814a64.597131 64.597131 0 0 0 88.553683-23.813953l7.985517-14.259853a60.319176 60.319176 0 0 0 4.84835-10.837488 61.602562 61.602562 0 0 0-38.216404-78.286589A447.046372 447.046372 0 0 1 531.369157 425.799192a448.187161 448.187161 0 0 1-71.299261-50.765074 58.89319 58.89319 0 0 0-9.6967-6.844729 60.746971 60.746971 0 0 0-30.516084-8.270715z" fill="#87edc6" p-id="24339" data-spm-anchor-id="a313x.search_index.0.i34.de003a81ZboPWB" class=""></path></svg>