<?xml version="1.0" standalone="no"?><!DOCTYPE svg PUBLIC "-//W3C//DTD SVG 1.1//EN" "http://www.w3.org/Graphics/SVG/1.1/DTD/svg11.dtd"><svg t="1749795911897" class="icon" viewBox="0 0 1067 1024" version="1.1" xmlns="http://www.w3.org/2000/svg" p-id="3116" xmlns:xlink="http://www.w3.org/1999/xlink" width="208.3984375" height="200"><path d="M924.036246 311.014521c-204.110863-50.564246-417.709498-62.177668-625.605763-34.558786l-3.717459-205.780323c-0.757081-44.915261-35.417782-75.708057-76.882503-65.691298-41.469573 9.98764-73.587261 55.601744-72.37399 98.794161l5.459715 199.131602c-2.431393 0.553251-4.86764 1.111355-7.299033 1.674313C63.196815 323.972246 1.708284 413.084512 4.469687 493.616531l12.821839 381.073592c2.761403 80.633934 68.612853 146.577592 146.24273 146.165081 246.91018-4.212474 493.796095-8.997611 740.648038-13.214939 77.605611-2.392569 143.437649-67.739299 146.199052-145.019753l12.821839-366.126104c2.761403-77.168834-58.736834-164.645611-139.166939-185.479887z" fill="#3bb6a6" p-id="3117" data-spm-anchor-id="a313x.search_index.0.i3.2b4f3a81Tlkswv" class="selected"></path><path d="M747.374408 893.005649c-113.731943 0-206.255924-92.523981-206.255925-206.255924 0-113.72709 92.523981-206.251071 206.255925-206.251071s206.255924 92.523981 206.255924 206.251071c0 113.731943-92.523981 206.255924-206.255924 206.255924z m0-315.445384c-60.207318 0-109.194313 48.982142-109.194313 109.18946 0 60.207318 48.986995 109.194313 109.194313 109.194313s109.194313-48.986995 109.194312-109.194313-48.986995-109.18946-109.194312-109.18946zM351.887166 635.802085c-3.693194 0-7.449479-0.422218-11.20091-1.310331-44.444512-10.497213-93.392682-10.502066-137.827488-0.004854-26.065896 6.197384-52.224-9.977934-58.392266-36.063241-6.168265-26.085308 9.982787-52.228853 36.068095-58.392266a398.656303 398.656303 0 0 1 182.47583-0.004853c26.085308 6.168265 42.23636 32.306957 36.072947 58.392266-5.280152 22.33873-25.202047 37.38328-47.196208 37.383279zM351.887166 820.219147c-3.693194 0-7.449479-0.422218-11.20091-1.310332-44.444512-10.497213-93.392682-10.502066-137.827488-0.004853-26.065896 6.202237-52.224-9.977934-58.392266-36.063242-6.168265-26.085308 9.982787-52.228853 36.068095-58.392265a398.656303 398.656303 0 0 1 182.47583-0.004853c26.085308 6.168265 42.23636 32.306957 36.072947 58.392265-5.280152 22.33873-25.202047 37.38328-47.196208 37.38328z" fill="#FFFFFF" p-id="3118" data-spm-anchor-id="a313x.search_index.0.i2.2b4f3a81Tlkswv" class=""></path></svg>