<?xml version="1.0" standalone="no"?><!DOCTYPE svg PUBLIC "-//W3C//DTD SVG 1.1//EN" "http://www.w3.org/Graphics/SVG/1.1/DTD/svg11.dtd"><svg t="1750040214369" class="icon" viewBox="0 0 1024 1024" version="1.1" xmlns="http://www.w3.org/2000/svg" p-id="4328" xmlns:xlink="http://www.w3.org/1999/xlink" width="200" height="200"><path d="M709.12 371.2c38.4 35.84 58.88 89.6 58.88 145.92s-23.04 110.08-58.88 145.92c-12.8 10.24-30.72 10.24-40.96-2.56-10.24-12.8-10.24-30.72 2.56-43.52 25.6-25.6 40.96-61.44 40.96-99.84 0-40.96-15.36-76.8-40.96-102.4-12.8-10.24-12.8-30.72-2.56-43.52s28.16-12.8 40.96 0z" fill="#4ac967" p-id="4329"></path><path d="M796.16 281.6c64 58.88 99.84 143.36 99.84 238.08s-35.84 179.2-99.84 238.08C783.36 768 765.44 768 755.2 755.2c-10.24-12.8-10.24-33.28 2.56-43.52 51.2-46.08 79.36-115.2 79.36-192s-30.72-145.92-79.36-192c-12.8-10.24-12.8-30.72-2.56-43.52s28.16-15.36 40.96-2.56z m-202.24-128c15.36 15.36 23.04 35.84 23.04 58.88v599.04c0 46.08-35.84 84.48-81.92 84.48-20.48 0-40.96-7.68-56.32-25.6L332.8 716.8c-7.68-7.68-20.48-12.8-30.72-12.8h-56.32c-64 0-117.76-53.76-117.76-122.88V442.88C128 376.32 181.76 320 245.76 320h56.32c12.8 0 23.04-5.12 30.72-12.8l148.48-153.6c30.72-33.28 81.92-33.28 112.64 0z" fill="#4ac967" p-id="4330"></path></svg>